<svg xmlns:xlink="http://www.w3.org/1999/xlink" viewBox="0 0 32 32" xmlns="http://www.w3.org/2000/svg" aria-label="Learn more" role="img" focusable="false" style="display: block; height: 15px; width: 15px; fill: rgb(247, 247, 247);" width="32"  height="32" ><path d="m16 1c-8.271 0-15 6.729-15 15s6.729 15 15 15 15-6.729 15-15-6.729-15-15-15zm0 25a2 2 0 1 1 0-4 2 2 0 0 1 0 4zm1.506-8.062-.006 2.066-3-.008.011-4.288 1.102-.301c1.295-.353 3.466-1.266 3.466-3.407 0-1.833-1.528-2.668-2.948-2.668-1.423 0-2.65.947-3.054 2.358l-2.884-.826c.776-2.711 3.162-4.532 5.938-4.532 3.391 0 5.948 2.437 5.948 5.668 0 2.653-1.687 4.814-4.573 5.938z" fill="#F7F7F7"></path></svg>